<svg width="39" height="38" viewBox="0 0 39 38" fill="none" xmlns="http://www.w3.org/2000/svg">
<g id="Company Logo">
<rect x="2" y="1.5" width="35" height="35" rx="7.5" fill="#18181B"/>
<path id="Shape" fill-rule="evenodd" clip-rule="evenodd" d="M23.6548 8.5C23.6548 8.5 21.7499 8.5089 20.3798 10.3275C19.1614 11.9446 19.4716 13.3278 19.4716 13.3278C19.4716 13.3278 21.1236 13.6156 22.5769 11.8569C23.9381 10.2098 23.6548 8.5 23.6548 8.5ZM20.7386 14.194C20.2903 14.376 19.9218 14.5256 19.6458 14.5256C19.3018 14.5256 18.8868 14.3646 18.4045 14.1775C17.7356 13.918 16.9374 13.6083 16.0197 13.6083C13.5902 13.6083 11 15.799 11 19.9751C11 24.2196 14.0602 29.5 16.4824 29.5C16.8592 29.5 17.3259 29.3297 17.8434 29.1408C18.487 28.9059 19.2091 28.6423 19.9343 28.6423C20.5845 28.6423 21.1484 28.8545 21.7049 29.0638C22.2471 29.2678 22.7823 29.4692 23.3835 29.4692C26.0361 29.4692 28 23.9026 28 23.9026C28 23.9026 25.1906 22.8073 25.1906 19.6288C25.1906 16.8113 27.4459 15.6502 27.4459 15.6502C27.4459 15.6502 26.2928 13.5498 23.3617 13.5498C22.3256 13.5498 21.4355 13.9111 20.7386 14.194Z" fill="white"/>
<rect x="2" y="1.5" width="35" height="35" rx="7.5" stroke="#F9FAFB" stroke-width="3"/>
</g>
</svg>
