<svg width="39" height="38" viewBox="0 0 39 38" fill="none" xmlns="http://www.w3.org/2000/svg">
<g id="Company Logo">
<rect x="2" y="1.5" width="35" height="35" rx="7.5" fill="#1C64F2"/>
<path id="TJ" d="M11.4972 16.093V14.3182H19.8594V16.093H16.7422V24.5H14.6143V16.093H11.4972ZM24.0417 14.3182H26.1696V21.4176C26.1696 22.0739 26.0221 22.6439 25.7271 23.1278C25.4354 23.6117 25.0294 23.9846 24.5091 24.2464C23.9887 24.5083 23.3838 24.6392 22.6944 24.6392C22.0813 24.6392 21.5244 24.5315 21.024 24.3161C20.5268 24.0973 20.1324 23.7659 19.8407 23.3217C19.5491 22.8743 19.4049 22.3125 19.4082 21.6364H21.551C21.5576 21.9048 21.6123 22.1352 21.715 22.3274C21.8211 22.5163 21.9653 22.6622 22.1475 22.7649C22.3332 22.8643 22.5519 22.9141 22.8038 22.9141C23.069 22.9141 23.2927 22.8577 23.475 22.745C23.6606 22.629 23.8014 22.46 23.8975 22.2379C23.9937 22.0159 24.0417 21.7424 24.0417 21.4176V14.3182Z" fill="white"/>
<rect x="2" y="1.5" width="35" height="35" rx="7.5" stroke="#F9FAFB" stroke-width="3"/>
</g>
</svg>
