<svg width="40" height="38" viewBox="0 0 40 38" fill="none" xmlns="http://www.w3.org/2000/svg">
<g id="Company Logo">
<rect x="2" y="1.5" width="36" height="35" rx="7.5" fill="#111928"/>
<path id="SU" d="M16.4084 17.2464C16.3686 16.8454 16.1979 16.5339 15.8963 16.3118C15.5947 16.0897 15.1854 15.9787 14.6683 15.9787C14.317 15.9787 14.0204 16.0284 13.7784 16.1278C13.5365 16.224 13.3509 16.3582 13.2216 16.5305C13.0956 16.7029 13.0327 16.8984 13.0327 17.1172C13.026 17.2995 13.0642 17.4586 13.147 17.5945C13.2332 17.7304 13.3509 17.848 13.5 17.9474C13.6491 18.0436 13.8215 18.1281 14.017 18.201C14.2126 18.2706 14.4214 18.3303 14.6435 18.38L15.5582 18.5987C16.0024 18.6982 16.41 18.8307 16.7812 18.9964C17.1525 19.1622 17.474 19.366 17.7457 19.608C18.0175 19.8499 18.228 20.1349 18.3771 20.4631C18.5296 20.7912 18.6075 21.1674 18.6108 21.5916C18.6075 22.2147 18.4484 22.755 18.1335 23.2124C17.822 23.6664 17.3712 24.0194 16.7812 24.2713C16.1946 24.5199 15.487 24.6442 14.6584 24.6442C13.8364 24.6442 13.1205 24.5182 12.5107 24.2663C11.9041 24.0144 11.4302 23.6416 11.0888 23.1477C10.7507 22.6506 10.5734 22.0357 10.5568 21.3033H12.6399C12.6631 21.6446 12.7609 21.9297 12.9332 22.1584C13.1089 22.3838 13.3426 22.5545 13.6342 22.6705C13.9292 22.7831 14.2623 22.8395 14.6335 22.8395C14.9981 22.8395 15.3146 22.7865 15.5831 22.6804C15.8549 22.5743 16.0653 22.4268 16.2145 22.2379C16.3636 22.049 16.4382 21.8319 16.4382 21.5866C16.4382 21.358 16.3703 21.1657 16.2344 21.0099C16.1018 20.8542 15.9063 20.7216 15.6477 20.6122C15.3925 20.5028 15.0793 20.4034 14.7081 20.3139L13.5994 20.0355C12.741 19.8267 12.0632 19.5002 11.5661 19.0561C11.0689 18.612 10.822 18.0137 10.8253 17.2614C10.822 16.6449 10.986 16.1063 11.3175 15.6456C11.6522 15.1849 12.1113 14.8253 12.6946 14.5668C13.2779 14.3082 13.9408 14.179 14.6832 14.179C15.4389 14.179 16.0985 14.3082 16.6619 14.5668C17.2287 14.8253 17.6695 15.1849 17.9844 15.6456C18.2992 16.1063 18.4616 16.6399 18.4716 17.2464H16.4084ZM26.3478 14.3182H28.5005V20.9304C28.5005 21.6728 28.3232 22.3224 27.9686 22.8793C27.6172 23.4361 27.1251 23.8703 26.492 24.1818C25.859 24.4901 25.1215 24.6442 24.2797 24.6442C23.4345 24.6442 22.6954 24.4901 22.0623 24.1818C21.4293 23.8703 20.9371 23.4361 20.5858 22.8793C20.2344 22.3224 20.0588 21.6728 20.0588 20.9304V14.3182H22.2115V20.7464C22.2115 21.1342 22.296 21.4789 22.465 21.7805C22.6374 22.0821 22.8793 22.3191 23.1909 22.4915C23.5024 22.6638 23.8654 22.75 24.2797 22.75C24.6973 22.75 25.0602 22.6638 25.3684 22.4915C25.68 22.3191 25.9203 22.0821 26.0893 21.7805C26.2617 21.4789 26.3478 21.1342 26.3478 20.7464V14.3182Z" fill="white"/>
<rect x="2" y="1.5" width="36" height="35" rx="7.5" stroke="#F9FAFB" stroke-width="3"/>
</g>
</svg>
