<svg width="23" height="21" viewBox="0 0 23 21" fill="none" xmlns="http://www.w3.org/2000/svg">
<path fill-rule="evenodd" clip-rule="evenodd" d="M0.0693359 2.50002C0.0693359 2.07568 0.237907 1.66871 0.537965 1.36865C0.838023 1.0686 1.24499 0.900024 1.66934 0.900024H20.8693C21.2937 0.900024 21.7007 1.0686 22.0007 1.36865C22.3008 1.66871 22.4693 2.07568 22.4693 2.50002C22.4693 2.92437 22.3008 3.33134 22.0007 3.6314C21.7007 3.93145 21.2937 4.10002 20.8693 4.10002H1.66934C1.24499 4.10002 0.838023 3.93145 0.537965 3.6314C0.237907 3.33134 0.0693359 2.92437 0.0693359 2.50002ZM0.0693359 10.5C0.0693359 10.0757 0.237907 9.66871 0.537965 9.36865C0.838023 9.0686 1.24499 8.90002 1.66934 8.90002H20.8693C21.2937 8.90002 21.7007 9.0686 22.0007 9.36865C22.3008 9.66871 22.4693 10.0757 22.4693 10.5C22.4693 10.9244 22.3008 11.3313 22.0007 11.6314C21.7007 11.9315 21.2937 12.1 20.8693 12.1H1.66934C1.24499 12.1 0.838023 11.9315 0.537965 11.6314C0.237907 11.3313 0.0693359 10.9244 0.0693359 10.5ZM0.0693359 18.5C0.0693359 18.0757 0.237907 17.6687 0.537965 17.3687C0.838023 17.0686 1.24499 16.9 1.66934 16.9H11.2693C11.6937 16.9 12.1006 17.0686 12.4007 17.3687C12.7008 17.6687 12.8693 18.0757 12.8693 18.5C12.8693 18.9244 12.7008 19.3313 12.4007 19.6314C12.1006 19.9315 11.6937 20.1 11.2693 20.1H1.66934C1.24499 20.1 0.838023 19.9315 0.537965 19.6314C0.237907 19.3313 0.0693359 18.9244 0.0693359 18.5Z" fill="#111928"/>
</svg>
