<svg width="39" height="40" viewBox="0 0 39 40" fill="none" xmlns="http://www.w3.org/2000/svg">
<g id="Company Logo">
<rect x="2" y="2" width="35" height="36" rx="7.5" fill="white"/>
<g id="Logo">
<path id="Vector" d="M29.989 20.2058C29.989 19.3045 29.9175 18.6467 29.7629 17.9647H19.7092V22.0328H25.6105C25.4916 23.0438 24.8491 24.5663 23.4213 25.5894L23.4013 25.7256L26.5801 28.2466L26.8003 28.2691C28.8229 26.3568 29.989 23.5432 29.989 20.2058Z" fill="#4285F4"/>
<path id="Vector_2" d="M19.7092 30.9244C22.6004 30.9244 25.0275 29.95 26.8003 28.2692L23.4213 25.5894C22.5171 26.235 21.3035 26.6857 19.7092 26.6857C16.8775 26.6857 14.4742 24.7734 13.6175 22.1303L13.4919 22.1412L10.1865 24.76L10.1433 24.883C11.9042 28.464 15.5211 30.9244 19.7092 30.9244Z" fill="#34A853"/>
<path id="Vector_3" d="M13.6175 22.1303C13.3915 21.4482 13.2607 20.7174 13.2607 19.9622C13.2607 19.207 13.3915 18.4762 13.6057 17.7941L13.5997 17.6489L10.2529 14.988L10.1434 15.0414C9.41765 16.5274 9.00122 18.1961 9.00122 19.9622C9.00122 21.7284 9.41765 23.397 10.1434 24.883L13.6175 22.1303Z" fill="#FBBC05"/>
<path id="Vector_4" d="M19.7092 13.2387C21.7199 13.2387 23.0763 14.1278 23.8496 14.8709L26.8717 11.8502C25.0157 10.084 22.6004 9 19.7092 9C15.5211 9 11.9042 11.4604 10.1433 15.0414L13.6056 17.7941C14.4742 15.151 16.8775 13.2387 19.7092 13.2387Z" fill="#EB4335"/>
</g>
<rect x="2" y="2" width="35" height="36" rx="7.5" stroke="#F9FAFB" stroke-width="3"/>
</g>
</svg>
